# xmcd
#
# Track frame offsets: 
#        150
#        13256
#        25892
#        43528
#        57773
#        70764
#        82310
#        94663
#        108569
#        120110
#        137315
#        149279
#
# Disc length: 2182 seconds
#
# Revision: 0
# Processed by: cddbd v1.5.2PL0 Copyright (c) Steve Scherf et al.
# Submitted via: ExactAudioCopy v1.0b1
#
DISCID=9a08840c
DTITLE=Big Boy Bloater - That Ain't My Name
DYEAR=2008
DGENRE=Blues
TTITLE0=Matchbox
TTITLE1=Please Don't Leave Me
TTITLE2=That Ain't My Name
TTITLE3=No Good Lover
TTITLE4=Give Me What You Got
TTITLE5=Whammy!
TTITLE6=I Ain't Done Nothing Wrong
TTITLE7=Gangster Of Love
TTITLE8=Man Or Monkey?
TTITLE9=I Went Down To The River
TTITLE10=Unlock The Door
TTITLE11=Hey Little Girl
EXTD=
EXTT0=
EXTT1=
EXTT2=
EXTT3=
EXTT4=
EXTT5=
EXTT6=
EXTT7=
EXTT8=
EXTT9=
EXTT10=
EXTT11=
PLAYORDER=
